<svg xmlns="http://www.w3.org/2000/svg" width="46.963" height="50.515" viewBox="0 0 46.963 50.515">
  <g id="Grupo_148362" data-name="Grupo 148362" transform="translate(-729 -5251.825)">
    <path id="Trazado_260332" data-name="Trazado 260332" d="M37.523,60.73H13.9a2.964,2.964,0,0,1-2.961-2.961V19.5A2.964,2.964,0,0,1,13.9,16.54H37.523a2.964,2.964,0,0,1,2.96,2.96V57.769A2.964,2.964,0,0,1,37.523,60.73ZM13.9,17.579A1.923,1.923,0,0,0,11.976,19.5V57.769A1.924,1.924,0,0,0,13.9,59.69H37.523a1.924,1.924,0,0,0,1.921-1.921V19.5a1.923,1.923,0,0,0-1.921-1.921Z" transform="translate(718.063 5235.285)" fill="#333"/>
    <path id="Trazado_260333" data-name="Trazado 260333" d="M35.871,43.832H17.906a2.559,2.559,0,0,1-2.556-2.556v-18.4a2.559,2.559,0,0,1,2.556-2.556H35.871a2.559,2.559,0,0,1,2.556,2.556v18.4A2.559,2.559,0,0,1,35.871,43.832ZM17.906,21.361a1.518,1.518,0,0,0-1.517,1.517v18.4a1.519,1.519,0,0,0,1.517,1.517H35.871a1.519,1.519,0,0,0,1.517-1.517v-18.4a1.518,1.518,0,0,0-1.517-1.517Z" transform="translate(716.885 5234.276)" fill="#333"/>
    <path id="Trazado_260334" data-name="Trazado 260334" d="M29.06,65.472A5.574,5.574,0,1,1,34.635,59.9,5.581,5.581,0,0,1,29.06,65.472Zm0-10.109A4.534,4.534,0,1,0,33.6,59.9,4.539,4.539,0,0,0,29.06,55.363Z" transform="translate(714.713 5225.2)" fill="#333"/>
    <path id="Trazado_260335" data-name="Trazado 260335" d="M29.821,64.143a3.484,3.484,0,1,1,3.484-3.484A3.488,3.488,0,0,1,29.821,64.143Zm0-5.928a2.444,2.444,0,1,0,2.445,2.444A2.447,2.447,0,0,0,29.821,58.214Z" transform="translate(713.952 5224.439)" fill="#333"/>
    <path id="Trazado_260336" data-name="Trazado 260336" d="M40.377,69.969a1.5,1.5,0,1,1-1.5-1.5A1.5,1.5,0,0,1,40.377,69.969Z" transform="translate(711.006 5221.425)" fill="#333"/>
    <path id="Trazado_260337" data-name="Trazado 260337" d="M46.051,69.969a1.5,1.5,0,1,1-1.5-1.5A1.5,1.5,0,0,1,46.051,69.969Z" transform="translate(709.492 5221.425)" fill="#333"/>
    <path id="Trazado_260338" data-name="Trazado 260338" d="M25.895,41.119q-2.079,0-2.08-2.921a3.976,3.976,0,0,1,.562-2.308,1.875,1.875,0,0,1,1.631-.794q2.031,0,2.031,2.969a3.912,3.912,0,0,1-.554,2.266A1.826,1.826,0,0,1,25.895,41.119Zm.056-5.044q-.832,0-.833,2.091,0,1.971.817,1.97.8,0,.8-2.031T25.951,36.075Z" transform="translate(714.625 5230.332)" fill="#333"/>
    <path id="Trazado_260339" data-name="Trazado 260339" d="M32.887,41.119q-2.08,0-2.08-2.921a3.976,3.976,0,0,1,.562-2.308A1.875,1.875,0,0,1,33,35.1q2.031,0,2.031,2.969a3.912,3.912,0,0,1-.554,2.266A1.825,1.825,0,0,1,32.887,41.119Zm.056-5.044q-.832,0-.832,2.091,0,1.971.816,1.97.8,0,.8-2.031T32.943,36.075Z" transform="translate(712.759 5230.332)" fill="#333"/>
    <path id="Trazado_260340" data-name="Trazado 260340" d="M42.025,41.017H38.341V40h1.207V36.375l-1.239.268V35.6l2.518-.507V40h1.2Z" transform="translate(710.756 5230.332)" fill="#333"/>
    <path id="Trazado_260341" data-name="Trazado 260341" d="M51.319,70.1H44.907a.52.52,0,0,1-.52-.52V61.95h1.039v7.1H50.8V40.462a.52.52,0,0,1,.52-.52h7.654a.52.52,0,0,1,.52.52v3.466H58.453V40.982H51.839V69.575A.52.52,0,0,1,51.319,70.1Z" transform="translate(709.134 5229.039)" fill="#333"/>
    <path id="Trazado_260342" data-name="Trazado 260342" d="M64.094,74.166h0a.52.52,0,0,1-.52-.52V68.935c0-.287.4.09.687.09l-.055-.133c.287,0,.408-.153.408.133v4.621A.52.52,0,0,1,64.094,74.166Z" transform="translate(704.013 5221.329)" fill="#333"/>
    <path id="Trazado_260343" data-name="Trazado 260343" d="M64.9,62.866H62.361a.52.52,0,0,1-.52-.52V44.324a.52.52,0,0,1,.52-.52H64.9a.52.52,0,0,1,.52.52V62.346A.52.52,0,0,1,64.9,62.866Zm-2.022-1.04h1.5V44.843h-1.5Z" transform="translate(704.476 5228.007)" fill="#333"/>
    <path id="Rectángulo_44414" data-name="Rectángulo 44414" d="M.51,0H3.215a.51.51,0,0,1,.51.51V2.262a.511.511,0,0,1-.511.511H.51A.51.51,0,0,1,0,2.262V.51A.51.51,0,0,1,.51,0Z" transform="translate(732.755 5280.534)" fill="#333"/>
    <path id="Trazado_260344" data-name="Trazado 260344" d="M17.717,72.058a2.426,2.426,0,1,1,2.426-2.426A2.429,2.429,0,0,1,17.717,72.058Zm0-3.812A1.386,1.386,0,1,0,19.1,69.632,1.388,1.388,0,0,0,17.717,68.246Z" transform="translate(716.901 5221.761)" fill="#333"/>
    <path id="Trazado_260345" data-name="Trazado 260345" d="M53.1,71.787H39.234a.52.52,0,0,1-.52-.52V60.436h1.039V70.747H52.577V34.789a.52.52,0,0,1,.52-.52H63.524a.52.52,0,0,1,.52.52v7.625H63v-7.1H53.617V71.267A.52.52,0,0,1,53.1,71.787Z" transform="translate(710.648 5230.553)" fill="#333"/>
    <path id="Trazado_260346" data-name="Trazado 260346" d="M72.368,74.178h0a.52.52,0,0,1-.52-.52V69.037c0-.287.233-.112.52-.112v.022c.287,0,.52-.136.52.151v4.56A.519.519,0,0,1,72.368,74.178Z" transform="translate(701.804 5221.316)" fill="#333"/>
    <path id="Trazado_260347" data-name="Trazado 260347" d="M73.176,62.866H70.635a.52.52,0,0,1-.52-.52V44.324a.52.52,0,0,1,.52-.52h2.541a.52.52,0,0,1,.52.52V62.346A.521.521,0,0,1,73.176,62.866Zm-2.021-1.04h1.5V44.843h-1.5Z" transform="translate(702.267 5228.007)" fill="#333"/>
    <path id="Trazado_260348" data-name="Trazado 260348" d="M73.176,62.865H70.634a.52.52,0,0,1-.52-.52V44.324a.52.52,0,0,1,.52-.52h2.542a.52.52,0,0,1,.52.52V62.346A.52.52,0,0,1,73.176,62.865Zm-2.022-1.039h1.5V44.843h-1.5Z" transform="translate(702.267 5228.007)" fill="#333"/>
  </g>
</svg>
