<svg xmlns="http://www.w3.org/2000/svg" width="68" height="58" viewBox="0 0 68 58">
  <g id="Grupo_148363" data-name="Grupo 148363" transform="translate(-1142 -5246.34)">
    <path id="Trazado_260349" data-name="Trazado 260349" d="M103.207,156.954H86.947a2.966,2.966,0,0,1-2.91-3.012V127.086h.952v26.856A2.014,2.014,0,0,0,86.947,156h16.26a2.014,2.014,0,0,0,1.959-2.061V123.311h.951v30.631A2.966,2.966,0,0,1,103.207,156.954Z" transform="translate(1075.137 5144.387)" fill="#333"/>
    <path id="Trazado_260350" data-name="Trazado 260350" d="M91.533,119.539a13.309,13.309,0,1,1,13.308-13.309A13.324,13.324,0,0,1,91.533,119.539Zm0-25.685a12.377,12.377,0,1,0,12.376,12.377A12.43,12.43,0,0,0,91.533,93.853Zm0,20.714a8.338,8.338,0,0,1-6.09-14.032,8.26,8.26,0,0,1,6.09-2.643,8.337,8.337,0,0,1,0,16.675Zm0-15.743a7.4,7.4,0,0,0-7.4,7.405,7.4,7.4,0,1,0,7.4-7.405Z" transform="translate(1077.438 5156.418)" fill="#333"/>
    <rect id="Rect치ngulo_44415" data-name="Rect치ngulo 44415" width="0.932" height="4.972" transform="matrix(0.683, -0.73, 0.73, 0.683, 1159.273, 5254.215)" fill="#333"/>
    <path id="Trazado_260351" data-name="Trazado 260351" d="M81.4,140.4h-1.01a3.251,3.251,0,0,1-2.754-4.979l3.676-5.858.328-.04a.551.551,0,0,1,.55.55v9.535A.791.791,0,0,1,81.4,140.4Zm-.142-9-2.832,4.513a2.319,2.319,0,0,0,1.964,3.552h.868Z" transform="translate(1077.873 5141.928)" fill="#333"/>
    <path id="Trazado_260352" data-name="Trazado 260352" d="M103.56,164.136H90.951a1.414,1.414,0,0,1-1.412-1.412v-4.532a1.413,1.413,0,0,1,1.412-1.411H103.56a1.413,1.413,0,0,1,1.411,1.411v4.532A1.413,1.413,0,0,1,103.56,164.136Zm-12.609-6.422a.48.48,0,0,0-.48.478v4.532a.48.48,0,0,0,.48.48H103.56a.48.48,0,0,0,.479-.48v-4.532a.479.479,0,0,0-.479-.478Z" transform="translate(1072.959 5131.136)" fill="#333"/>
    <path id="Trazado_260353" data-name="Trazado 260353" d="M98.97,148.683a5.1,5.1,0,1,1,5.1-5.1A5.106,5.106,0,0,1,98.97,148.683Zm0-9.27a4.169,4.169,0,1,0,4.168,4.168A4.173,4.173,0,0,0,98.97,139.413Z" transform="translate(1071.245 5138.382)" fill="#333"/>
    <path id="Trazado_260354" data-name="Trazado 260354" d="M100.3,147.981a3.066,3.066,0,1,1,3.066-3.067A3.07,3.07,0,0,1,100.3,147.981Zm0-5.2a2.134,2.134,0,1,0,2.134,2.134A2.136,2.136,0,0,0,100.3,142.781Z" transform="translate(1069.911 5137.048)" fill="#333"/>
    <path id="Trazado_260355" data-name="Trazado 260355" d="M94.874,163.732q-1.554,0-1.554-2.183a2.97,2.97,0,0,1,.42-1.724,1.4,1.4,0,0,1,1.218-.594q1.518,0,1.518,2.219a2.931,2.931,0,0,1-.414,1.693A1.367,1.367,0,0,1,94.874,163.732Zm.042-3.769q-.622,0-.622,1.562,0,1.473.61,1.472.594,0,.6-1.517T94.916,159.963Z" transform="translate(1071.462 5130.167)" fill="#333"/>
    <path id="Trazado_260356" data-name="Trazado 260356" d="M101.212,163.732q-1.553,0-1.553-2.183a2.97,2.97,0,0,1,.42-1.724,1.4,1.4,0,0,1,1.219-.594q1.517,0,1.517,2.219a2.931,2.931,0,0,1-.414,1.693A1.367,1.367,0,0,1,101.212,163.732Zm.043-3.769q-.622,0-.622,1.562,0,1.473.61,1.472.594,0,.594-1.517T101.255,159.963Z" transform="translate(1068.953 5130.167)" fill="#333"/>
    <path id="Trazado_260357" data-name="Trazado 260357" d="M109.236,163.655h-2.752V162.9h.9v-2.709l-.926.2v-.777l1.881-.379V162.9h.9Z" transform="translate(1066.261 5130.167)" fill="#333"/>
    <circle id="Elipse_5946" data-name="Elipse 5946" cx="1.165" cy="1.165" r="1.165" transform="translate(1163.405 5296.852)" fill="#333"/>
    <path id="Trazado_260358" data-name="Trazado 260358" d="M102.713,172.734a1.165,1.165,0,1,1-1.165-1.165A1.165,1.165,0,0,1,102.713,172.734Z" transform="translate(1068.666 5125.283)" fill="#333"/>
    <circle id="Elipse_5947" data-name="Elipse 5947" cx="1.165" cy="1.165" r="1.165" transform="translate(1174.59 5296.852)" fill="#333"/>
    <path id="Trazado_260359" data-name="Trazado 260359" d="M121.435,134.419h-1.942a.466.466,0,0,1-.466-.466V131.1a.466.466,0,0,1,.466-.466h1.942a.466.466,0,0,1,.466.466v2.848A.466.466,0,0,1,121.435,134.419Zm-1.476-.932h1.009v-1.916h-1.009Z" transform="translate(1061.286 5141.486)" fill="#333"/>
    <rect id="Rect치ngulo_44261" data-name="Rect치ngulo 44261" width="68" height="58" transform="translate(1142 5246.34)" fill="none"/>
  </g>
</svg>
