<svg xmlns="http://www.w3.org/2000/svg" width="68" height="58" viewBox="0 0 68 58">
  <g id="Grupo_148361" data-name="Grupo 148361" transform="translate(-302 -5244.34)">
    <g id="Grupo_148271" data-name="Grupo 148271" transform="translate(141.901 5284.353) rotate(-81)">
      <g id="Grupo_148260" data-name="Grupo 148260" transform="translate(59.989 196.857)">
        <g id="Grupo_148259" data-name="Grupo 148259">
          <path id="Trazado_260322" data-name="Trazado 260322" d="M80.369,213.727a.5.5,0,0,1-.287-.091L76.911,211.4l.573-.813,2.793,1.97.5-.613-2.449-2.376.693-.715,2.777,2.695a.5.5,0,0,1,.038.674l-1.087,1.323A.5.5,0,0,1,80.369,213.727Z" transform="translate(-76.911 -208.854)" fill="#333"/>
        </g>
      </g>
      <g id="Grupo_148261" data-name="Grupo 148261" transform="translate(18.056 209.038)">
        <path id="Trazado_260323" data-name="Trazado 260323" d="M19.152,226.563h0a.443.443,0,0,1,.367-.507l2.415-.416a.443.443,0,0,1,.507.367l.094-.012c.038.241-.219.48-.46.519l-2.415.416A.443.443,0,0,1,19.152,226.563Z" transform="translate(-19.146 -225.634)" fill="#333"/>
      </g>
      <g id="Grupo_148262" data-name="Grupo 148262" transform="translate(17.356 204.686)">
        <path id="Trazado_260324" data-name="Trazado 260324" d="M18.188,220.554h0a.442.442,0,0,1,.367-.507l2.506-.4a.441.441,0,0,1,.507.366L21.279,220c.039.241.163.478-.078.516l-2.506.4A.442.442,0,0,1,18.188,220.554Z" transform="translate(-18.182 -219.639)" fill="#333"/>
      </g>
      <g id="Grupo_148263" data-name="Grupo 148263" transform="translate(41.633 181.394)">
        <path id="Trazado_260325" data-name="Trazado 260325" d="M68.934,205.982a3.434,3.434,0,0,1-2.171-.776L51.624,192.852l4.346-5.3L71.108,199.9a3.426,3.426,0,0,1-2.174,6.077ZM53.025,192.713l14.368,11.722a2.5,2.5,0,0,0,3.424-.337,2.432,2.432,0,0,0-.338-3.422L56.11,188.952Z" transform="translate(-51.624 -187.553)" fill="#333"/>
      </g>
      <g id="Grupo_148264" data-name="Grupo 148264" transform="translate(23.12 166.526)">
        <path id="Trazado_260326" data-name="Trazado 260326" d="M44.212,185.272,26.456,170.709a.914.914,0,0,1-.128-1.283l1.666-2.031a.939.939,0,0,1,1.283-.126l17.756,14.564ZM28.647,168.038,27.1,170.056l16.973,13.817,1.561-1.9Z" transform="translate(-26.123 -167.072)" fill="#333"/>
      </g>
      <g id="Grupo_148265" data-name="Grupo 148265" transform="translate(15.167 165.08)">
        <path id="Trazado_260327" data-name="Trazado 260327" d="M23.878,169.489a.5.5,0,0,1-.316-.113l-1.881-1.543a.585.585,0,0,0-.375-.136l-5.623.2a.49.49,0,0,1-.464-.277.5.5,0,0,1,.061-.536l1.332-1.624a.5.5,0,0,1,.367-.181l5.6-.2h.005a1.637,1.637,0,0,1,1.061.36l1.882,1.543a.5.5,0,0,1,.069.7l-1.332,1.624a.5.5,0,0,1-.336.179ZM21.252,166.7a1.616,1.616,0,0,1,1.061.362l1.5,1.227.7-.857-1.5-1.227a.606.606,0,0,0-.38-.134l-5.394.192-.491.6,4.5-.162Z" transform="translate(-15.167 -165.08)" fill="#333"/>
      </g>
      <g id="Grupo_148266" data-name="Grupo 148266" transform="translate(39.195 178.998)">
        <path id="Trazado_260328" data-name="Trazado 260328" d="M50.048,193.288h0a1.782,1.782,0,0,1-1.378-2.913l4.5-5.491a1.835,1.835,0,0,1,2.51-.248,1.787,1.787,0,0,1,.248,2.508l-4.5,5.492A1.781,1.781,0,0,1,50.048,193.288Zm4.506-8.061a.786.786,0,0,0-.61.287l-4.5,5.492a.787.787,0,0,0,.608,1.286h0a.788.788,0,0,0,.61-.287l4.5-5.492a.788.788,0,0,0-.11-1.108A.774.774,0,0,0,54.553,185.228Z" transform="translate(-48.267 -184.252)" fill="#333"/>
      </g>
      <g id="Grupo_148268" data-name="Grupo 148268" transform="translate(29.106 200.353)">
        <g id="Grupo_148267" data-name="Grupo 148267" transform="translate(0)">
          <path id="Trazado_260329" data-name="Trazado 260329" d="M64.216,228.21c-4.333,0-9.534-2.8-15.041-8.226-6.352-6.258-14.354-.277-14.69-.02l-.117-1.127c.09-.068,8.533-6.432,15.505.439,3.744,3.691,13.147,11.662,19.593,5.955a5.787,5.787,0,0,0,2.106-4.092c.19-3.482-2.753-6.769-2.783-6.8l.737-.669c.133.147,3.251,3.631,3.039,7.524a6.75,6.75,0,0,1-2.44,4.784A8.675,8.675,0,0,1,64.216,228.21Z" transform="translate(-34.368 -213.67)" fill="#333"/>
        </g>
      </g>
      <g id="Grupo_148269" data-name="Grupo 148269" transform="translate(19.737 202.489)">
        <path id="Trazado_260330" data-name="Trazado 260330" d="M23.114,225.509a.489.489,0,0,1-.291-.094.5.5,0,0,1-.2-.324l-1.155-7.2a.5.5,0,0,1,.412-.57l4.367-.7a.5.5,0,0,1,.569.412l1.155,7.2a.5.5,0,0,1-.412.57l-4.366.7A.482.482,0,0,1,23.114,225.509Zm-.585-7.289,1,6.222,3.384-.543-1-6.221Z" transform="translate(-21.462 -216.612)" fill="#333"/>
      </g>
      <g id="Grupo_148270" data-name="Grupo 148270" transform="translate(24.213 203.714)">
        <path id="Trazado_260331" data-name="Trazado 260331" d="M28.575,224.2l-.947-5.9,4.807.64a1.087,1.087,0,0,1,.926.9l.178,1.1a1.075,1.075,0,0,1-.6,1.145Zm.248-4.729.522,3.253,3.163-1.53-.129-1.2Z" transform="translate(-27.628 -218.299)" fill="#333"/>
      </g>
    </g>
    <rect id="Rectángulo_44260" data-name="Rectángulo 44260" width="68" height="58" transform="translate(302 5244.34)" fill="none"/>
  </g>
</svg>
