<?xml version="1.0" encoding="utf-8"?>
<!-- Generator: Adobe Illustrator 26.1.0, SVG Export Plug-In . SVG Version: 6.00 Build 0)  -->
<svg version="1.1" id="Capa_1" xmlns="http://www.w3.org/2000/svg" xmlns:xlink="http://www.w3.org/1999/xlink" x="0px" y="0px"
	 viewBox="0 0 50 50" style="enable-background:new 0 0 50 50;" xml:space="preserve">
<g id="Grupo_148347" transform="translate(-411.257 -3468)">
	<path id="Trazado_252296" d="M450.6,3470.8h-28.8c-1.9,0-3.5,1.6-3.5,3.5v37.4c0,1.9,1.6,3.5,3.5,3.5h28.8c1.9,0,3.5-1.6,3.5-3.5
		v-37.4C454.1,3472.4,452.6,3470.8,450.6,3470.8z M421.9,3473.4h28.8c0.5,0,0.9,0.4,0.9,0.9v6.7H421v-6.7
		C421,3473.8,421.4,3473.4,421.9,3473.4z M450.6,3512.6h-28.8c-0.5,0-0.9-0.4-0.9-0.9v-28.9h30.5v28.9
		C451.5,3512.2,451.1,3512.6,450.6,3512.6z"/>
	<path id="Rectángulo_44158" d="M424.4,3487.1h3.4c0.5,0,0.9,0.4,0.9,0.9v2.8c0,0.5-0.4,0.9-0.9,0.9h-3.4c-0.5,0-0.9-0.4-0.9-0.9
		v-2.8C423.5,3487.5,423.9,3487.1,424.4,3487.1z"/>
	<path id="Rectángulo_44159" d="M424.4,3495.4h3.4c0.5,0,0.9,0.4,0.9,0.9v2.8c0,0.5-0.4,0.9-0.9,0.9h-3.4c-0.5,0-0.9-0.4-0.9-0.9
		v-2.8C423.5,3495.8,423.9,3495.4,424.4,3495.4z"/>
	<path id="Rectángulo_44160" d="M424.4,3503.6h3.4c0.5,0,0.9,0.4,0.9,0.9v2.8c0,0.5-0.4,0.9-0.9,0.9h-3.4c-0.5,0-0.9-0.4-0.9-0.9
		v-2.8C423.5,3504,423.9,3503.6,424.4,3503.6z"/>
	<path id="Trazado_252297" d="M448.9,3489.9h-17.8c-0.5,0-0.9,0.4-0.9,0.9s0.4,0.9,0.9,0.9h17.8c0.5,0,0.9-0.4,0.9-0.9
		S449.4,3489.9,448.9,3489.9z"/>
	<path id="Trazado_252298" d="M448.9,3497.6h-17.8c-0.5,0-0.9,0.4-0.9,0.9s0.4,0.9,0.9,0.9h17.8c0.5,0,0.9-0.4,0.9-0.9
		S449.4,3497.6,448.9,3497.6z"/>
	<path id="Trazado_252299" d="M448.9,3506.2h-17.8c-0.5,0-0.9,0.4-0.9,0.9s0.4,0.9,0.9,0.9h17.8c0.5,0,0.9-0.4,0.9-0.9
		S449.4,3506.2,448.9,3506.2z"/>
</g>
</svg>
