<svg xmlns="http://www.w3.org/2000/svg" width="43.751" height="52.707" viewBox="0 0 43.751 52.707">
  <g id="Grupo_148344" data-name="Grupo 148344" transform="translate(12005.252 12153.815)">
    <g id="Grupo_145488" data-name="Grupo 145488" transform="translate(-12005.252 -12153.815)">
      <g id="Grupo_145490" data-name="Grupo 145490" transform="translate(17.189 21.608)">
        <g id="Grupo_145489" data-name="Grupo 145489">
          <g id="Grupo_145488-2" data-name="Grupo 145488">
            <path id="Trazado_252147" data-name="Trazado 252147" d="M153.881,154.205H132.458a1.66,1.66,0,0,1-1.658-1.659v-4.837a.552.552,0,0,1,1.1,0v4.837a.556.556,0,0,0,.554.554h21.423a.555.555,0,0,0,.553-.554V125.87a.553.553,0,0,1,1.106,0v26.676A1.661,1.661,0,0,1,153.881,154.205Z" transform="translate(-130.8 -125.318)" fill="#20cb7d"/>
          </g>
        </g>
      </g>
      <g id="Grupo_145493" data-name="Grupo 145493" transform="translate(0 0)">
        <g id="Grupo_145492" data-name="Grupo 145492">
          <g id="Grupo_145491" data-name="Grupo 145491">
            <path id="Rectángulo_44035" data-name="Rectángulo 44035" d="M3.444,0h22.11A3.445,3.445,0,0,1,29,3.445V42.72a3.445,3.445,0,0,1-3.445,3.445H3.445A3.445,3.445,0,0,1,0,42.72V3.444A3.444,3.444,0,0,1,3.444,0Z" fill="#7352d6"/>
          </g>
        </g>
      </g>
      <g id="Grupo_145496" data-name="Grupo 145496" transform="translate(11.798 23.82)">
        <g id="Grupo_145495" data-name="Grupo 145495">
          <g id="Grupo_145494" data-name="Grupo 145494">
            <path id="Trazado_252148" data-name="Trazado 252148" d="M145.5,156.962H125.74a1.661,1.661,0,0,1-1.659-1.659v-4.837a.553.553,0,0,1,1.106,0V155.3a.554.554,0,0,0,.554.553H145.5a.553.553,0,0,0,.553-.553V128.627a.553.553,0,0,1,1.106,0V155.3A1.661,1.661,0,0,1,145.5,156.962Z" transform="translate(-124.081 -128.075)" fill="#20cb7d"/>
          </g>
        </g>
      </g>
      <g id="Grupo_145506" data-name="Grupo 145506" transform="translate(31.862 6.543)">
        <g id="Grupo_145499" data-name="Grupo 145499" transform="translate(2.212)">
          <g id="Grupo_145498" data-name="Grupo 145498">
            <g id="Grupo_145497" data-name="Grupo 145497">
              <path id="Trazado_252149" data-name="Trazado 252149" d="M152.535,114.489a.344.344,0,0,1-.345.346h0a.345.345,0,0,1-.346-.346v-7.6a.346.346,0,0,1,.346-.345h0a.345.345,0,0,1,.345.345Z" transform="translate(-151.844 -106.542)" fill="#5c6a78"/>
            </g>
          </g>
        </g>
        <g id="Grupo_145502" data-name="Grupo 145502" transform="translate(1.384 4.699)">
          <g id="Grupo_145501" data-name="Grupo 145501">
            <g id="Grupo_145500" data-name="Grupo 145500">
              <path id="Rectángulo_44036" data-name="Rectángulo 44036" d="M1.175,0h0A1.173,1.173,0,0,1,2.348,1.173V12.648a1.174,1.174,0,0,1-1.174,1.174h0A1.173,1.173,0,0,1,0,12.649V1.175A1.175,1.175,0,0,1,1.175,0Z" fill="#4dbfd9"/>
            </g>
          </g>
        </g>
        <g id="Grupo_145505" data-name="Grupo 145505" transform="translate(0 7.325)">
          <g id="Grupo_145504" data-name="Grupo 145504">
            <g id="Grupo_145503" data-name="Grupo 145503">
              <path id="Trazado_252150" data-name="Trazado 252150" d="M154.2,116.363a.69.69,0,0,1-.691.69h-3.732a.691.691,0,0,1-.692-.69h0a.692.692,0,0,1,.692-.692h3.732a.691.691,0,0,1,.691.692Z" transform="translate(-149.087 -115.671)" fill="#4dbfd9"/>
            </g>
          </g>
        </g>
      </g>
      <g id="Grupo_145516" data-name="Grupo 145516" transform="translate(38.636 4.885)">
        <g id="Grupo_145509" data-name="Grupo 145509" transform="translate(2.211)">
          <g id="Grupo_145508" data-name="Grupo 145508">
            <g id="Grupo_145507" data-name="Grupo 145507">
              <path id="Trazado_252151" data-name="Trazado 252151" d="M160.977,112.422a.346.346,0,0,1-.347.346h0a.346.346,0,0,1-.344-.346v-7.6a.345.345,0,0,1,.344-.345h0a.345.345,0,0,1,.347.345Z" transform="translate(-160.286 -104.475)" fill="#5c6a78"/>
            </g>
          </g>
        </g>
        <g id="Grupo_145512" data-name="Grupo 145512" transform="translate(1.382 4.699)">
          <g id="Grupo_145511" data-name="Grupo 145511">
            <g id="Grupo_145510" data-name="Grupo 145510">
              <path id="Rectángulo_44037" data-name="Rectángulo 44037" d="M1.174,0h0A1.173,1.173,0,0,1,2.349,1.173V12.646a1.175,1.175,0,0,1-1.175,1.175h0A1.174,1.174,0,0,1,0,12.647V1.174A1.174,1.174,0,0,1,1.174,0Z" fill="#d73d32"/>
            </g>
          </g>
        </g>
        <g id="Grupo_145515" data-name="Grupo 145515" transform="translate(0 7.325)">
          <g id="Grupo_145514" data-name="Grupo 145514">
            <g id="Grupo_145513" data-name="Grupo 145513">
              <path id="Trazado_252152" data-name="Trazado 252152" d="M162.644,114.295a.692.692,0,0,1-.693.692H158.22a.69.69,0,0,1-.69-.692h0a.69.69,0,0,1,.69-.691h3.731a.692.692,0,0,1,.693.691Z" transform="translate(-157.53 -113.604)" fill="#d73d32"/>
            </g>
          </g>
        </g>
      </g>
      <g id="Grupo_145519" data-name="Grupo 145519" transform="translate(9.726 44.966)">
        <g id="Grupo_145518" data-name="Grupo 145518">
          <g id="Grupo_145517" data-name="Grupo 145517">
            <path id="Rectángulo_44038" data-name="Rectángulo 44038" d="M1.377,0H3.458A1.378,1.378,0,0,1,4.836,1.378v.145A1.38,1.38,0,0,1,3.456,2.9H1.377A1.377,1.377,0,0,1,0,1.526V1.377A1.377,1.377,0,0,1,1.377,0Z" fill="#eae5f9"/>
          </g>
        </g>
      </g>
      <g id="Grupo_145522" data-name="Grupo 145522" transform="translate(15.253 44.966)">
        <g id="Grupo_145521" data-name="Grupo 145521">
          <g id="Grupo_145520" data-name="Grupo 145520">
            <path id="Rectángulo_44039" data-name="Rectángulo 44039" d="M1.378,0H3.459A1.379,1.379,0,0,1,4.838,1.379v.144A1.38,1.38,0,0,1,3.458,2.9H1.379A1.379,1.379,0,0,1,0,1.524V1.378A1.378,1.378,0,0,1,1.378,0Z" fill="#eae5f9"/>
          </g>
        </g>
      </g>
      <g id="Grupo_145525" data-name="Grupo 145525" transform="translate(2.643 2.859)">
        <g id="Grupo_145524" data-name="Grupo 145524">
          <g id="Grupo_145523" data-name="Grupo 145523">
            <path id="Rectángulo_44040" data-name="Rectángulo 44040" d="M.973,0H22.784a.974.974,0,0,1,.974.974V12.032a.975.975,0,0,1-.975.975H.974A.974.974,0,0,1,0,12.033V.973A.973.973,0,0,1,.973,0Z" fill="#fff"/>
          </g>
        </g>
      </g>
      <g id="Grupo_145528" data-name="Grupo 145528" transform="translate(5.362 20.917)">
        <g id="Grupo_145527" data-name="Grupo 145527">
          <g id="Grupo_145526" data-name="Grupo 145526">
            <path id="Trazado_252153" data-name="Trazado 252153" d="M134.214,133.533a9.077,9.077,0,1,1-9.077-9.076A9.077,9.077,0,0,1,134.214,133.533Z" transform="translate(-116.059 -124.457)" fill="#29398a"/>
          </g>
        </g>
      </g>
      <g id="Grupo_145531" data-name="Grupo 145531" transform="translate(7.524 22.777)">
        <g id="Grupo_145530" data-name="Grupo 145530">
          <g id="Grupo_145529" data-name="Grupo 145529">
            <path id="Trazado_252154" data-name="Trazado 252154" d="M122.746,140.774a.777.777,0,0,1-1.1,0l-2.662-2.661a.781.781,0,0,1,0-1.1L128.988,127a.781.781,0,0,1,1.1,0l2.663,2.662a.78.78,0,0,1,0,1.1Z" transform="translate(-118.754 -126.775)" fill="#eae5f9"/>
          </g>
        </g>
      </g>
      <g id="Grupo_145538" data-name="Grupo 145538" transform="translate(3.618 5.037)">
        <g id="Grupo_145534" data-name="Grupo 145534">
          <g id="Grupo_145533" data-name="Grupo 145533">
            <g id="Grupo_145532" data-name="Grupo 145532">
              <path id="Trazado_252155" data-name="Trazado 252155" d="M124.788,104.665a14.631,14.631,0,0,0-10.9,4.884l4.073,3.638a9.105,9.105,0,0,1,10.077-2.454L131,106.059A14.578,14.578,0,0,0,124.788,104.665Z" transform="translate(-113.886 -104.665)" fill="#4dbfd9"/>
            </g>
          </g>
        </g>
        <g id="Grupo_145537" data-name="Grupo 145537" transform="translate(14.15 1.394)">
          <g id="Grupo_145536" data-name="Grupo 145536">
            <g id="Grupo_145535" data-name="Grupo 145535">
              <path id="Trazado_252156" data-name="Trazado 252156" d="M134.489,106.4l-2.968,4.675a9.142,9.142,0,0,1,3.7,2.584l4.143-3.559A14.615,14.615,0,0,0,134.489,106.4Z" transform="translate(-131.521 -106.402)" fill="#d73d32"/>
            </g>
          </g>
        </g>
      </g>
      <g id="Grupo_145541" data-name="Grupo 145541" transform="translate(13.757 7.868)">
        <g id="Grupo_145540" data-name="Grupo 145540">
          <g id="Grupo_145539" data-name="Grupo 145539">
            <path id="Trazado_252157" data-name="Trazado 252157" d="M128.233,114.556a.855.855,0,0,1-1.711,0c0-.473.857-6.363.857-6.363S128.233,114.082,128.233,114.556Z" transform="translate(-126.522 -108.193)" fill="#666"/>
          </g>
        </g>
      </g>
      <g id="Grupo_145544" data-name="Grupo 145544" transform="translate(2.953 18.152)">
        <g id="Grupo_145543" data-name="Grupo 145543">
          <g id="Grupo_145542" data-name="Grupo 145542">
            <path id="Trazado_252158" data-name="Trazado 252158" d="M116.926,122.946a1.934,1.934,0,1,1-1.934-1.935A1.936,1.936,0,0,1,116.926,122.946Z" transform="translate(-113.057 -121.011)" fill="#4d5a68"/>
          </g>
        </g>
      </g>
      <g id="Grupo_145547" data-name="Grupo 145547" transform="translate(21.889 18.152)">
        <g id="Grupo_145546" data-name="Grupo 145546">
          <g id="Grupo_145545" data-name="Grupo 145545">
            <path id="Trazado_252159" data-name="Trazado 252159" d="M140.527,122.946a1.935,1.935,0,1,1-1.935-1.935A1.937,1.937,0,0,1,140.527,122.946Z" transform="translate(-136.657 -121.011)" fill="#d73d32"/>
          </g>
        </g>
      </g>
    </g>
  </g>
</svg>
