<?xml version="1.0" encoding="utf-8"?>
<!-- Generator: Adobe Illustrator 26.1.0, SVG Export Plug-In . SVG Version: 6.00 Build 0)  -->
<svg version="1.1" id="Capa_1" xmlns="http://www.w3.org/2000/svg" xmlns:xlink="http://www.w3.org/1999/xlink" x="0px" y="0px"
	 viewBox="0 0 50 50" style="enable-background:new 0 0 50 50;" xml:space="preserve">
<g>
	<path d="M9.1,17.2c3.9,0,7.7,0,11.5,0c0,0.5,0,0.9,0,1.4c-3.8,0-7.6,0-11.5,0c0,0.3,0,0.5,0,0.7c0,6.6,0,13.3,0,19.9
		c0,1.2-0.1,1.3-1.4,1.3c-0.3,0-0.6,0-0.9,0c-1.1,0-2,0.9-2.1,2c-0.1,1,0.7,2,1.7,2.2c0.2,0,0.4,0.1,0.7,0.1c10.3,0,20.6,0,31,0
		c0.1,0,0.3,0,0.5,0c0-5.9,0-11.7,0-17.6c0.5,0,1,0,1.5,0c0,0.2,0,0.4,0,0.5c0,5.8,0,11.6,0,17.4c0,0.9-0.2,1.1-1.1,1.1
		c-10.6,0-21.2,0-31.8,0c-2.2,0-4-1.6-3.9-4c0-8.9,0-17.9,0-26.8c0-2.4,1.5-3.9,3.9-3.9c0.3,0,0.5,0,0.8,0c0.8,0,1,0.2,1,1
		c0,1.4,0,2.7,0,4.1C9.1,16.8,9.1,17,9.1,17.2z M7.7,39.1c0-8.8,0-17.4,0-26.1c-1.8-0.3-2.9,0.8-2.9,2.6c0,7.9,0,15.7,0,23.6
		c0,0.2,0,0.4,0,0.7C5.7,39.2,6.6,39,7.7,39.1z"/>
	<path d="M31.5,7c0-0.8,0-1.5,0-2.3c0-0.7,0.2-0.9,0.9-0.9c1.3,0,2.6,0,4,0c0.7,0,0.9,0.2,0.9,0.9c0,0.7,0,1.4,0,2
		c0,0.1,0.1,0.3,0.3,0.4c1.1,0.5,1.1,0.5,1.9-0.3c0.3-0.3,0.6-0.6,1-0.9c0.4-0.4,0.8-0.4,1.2,0c1,0.9,1.9,1.9,2.9,2.8
		c0.4,0.4,0.4,0.8,0,1.2c-0.5,0.5-1,1-1.5,1.4c-0.2,0.2-0.2,0.3-0.1,0.6c0.5,1,0.4,1,1.6,1c0.5,0,0.9,0,1.4,0c0.5,0,0.8,0.3,0.8,0.8
		c0,1.3,0,2.7,0,4c0,0.6-0.3,0.8-0.8,0.8c-0.7,0-1.4,0-2.1,0c-0.3,0-0.4,0.1-0.5,0.3c-0.4,1-0.4,1,0.4,1.8c0.3,0.3,0.7,0.6,1,0.9
		c0.4,0.4,0.4,0.8,0,1.2c-1,1-1.9,1.9-2.9,2.9c-0.4,0.4-0.7,0.4-1.1,0c-0.5-0.5-1.1-1-1.6-1.5c-0.2-0.2-0.4-0.2-0.6-0.1c0,0,0,0,0,0
		c-1,0.1-1.1,0.8-1,1.6c0.1,0.4,0,0.9,0,1.3c0,0.5-0.3,0.8-0.8,0.8c-1.4,0-2.8,0-4.2,0c-0.5,0-0.8-0.3-0.8-0.8c0-0.7,0-1.4,0-2.1
		c0-0.2-0.2-0.4-0.3-0.4c-0.3-0.2-0.7-0.3-1.2-0.5c-0.5,0.5-1,1.1-1.6,1.7c-0.5,0.5-0.8,0.5-1.3,0c-0.9-0.9-1.9-1.8-2.8-2.7
		c-0.5-0.5-0.5-0.8,0-1.3c0.5-0.5,1-1,1.5-1.4c0.2-0.2,0.2-0.3,0.1-0.6c-0.5-1-0.4-1-1.6-1c-0.5,0-0.9,0-1.4,0
		c-0.6,0-0.8-0.3-0.8-0.8c0-1.4,0-2.7,0-4.1c0-0.5,0.3-0.8,0.8-0.8c0.7,0,1.5,0,2.2,0c0.1,0,0.3-0.1,0.4-0.3
		c0.5-1.1,0.5-1.1-0.4-1.9c-0.3-0.3-0.6-0.6-0.9-0.9c-0.4-0.4-0.4-0.7,0-1.1c1-1,2-1.9,3-2.9c0.4-0.3,0.8-0.3,1.2,0
		c0.5,0.5,1,1,1.5,1.5c0.2,0.2,0.3,0.2,0.6,0.1C30.8,7.3,31.1,7.2,31.5,7z M27.8,24.4c0.5-0.6,1-1.1,1.5-1.6
		c0.3-0.4,0.7-0.4,1.2-0.2c0.6,0.3,1.1,0.5,1.7,0.7c0.6,0.2,0.7,0.4,0.7,1c0,0.7,0,1.4,0,2.1c1,0,1.9,0,2.9,0c0-0.8,0-1.5,0-2.2
		c0-0.5,0.2-0.7,0.6-0.9c0.6-0.2,1.2-0.4,1.7-0.7c0.6-0.3,0.8-0.2,1.3,0.2c0.5,0.5,1,1,1.5,1.5c0.7-0.7,1.3-1.4,1.9-2
		c-0.5-0.5-0.9-1-1.4-1.5c-0.5-0.5-0.5-0.7-0.2-1.2c0.2-0.5,0.5-1,0.7-1.5c0.3-0.7,0.3-0.8,1.1-0.8c0.7,0,1.4,0,2.1,0
		c0-1,0-1.9,0-2.8c-0.8,0-1.5,0-2.3,0c-0.5,0-0.7-0.2-0.9-0.7c-0.2-0.6-0.4-1.1-0.7-1.7c-0.3-0.6-0.3-0.8,0.2-1.3
		c0.5-0.5,1-1,1.4-1.4c-0.6-0.7-1.3-1.4-2-2.1c-0.5,0.6-1,1.1-1.5,1.6C39,9.3,38.8,9.3,38.2,9c-0.5-0.2-1.1-0.5-1.6-0.7
		c-0.7-0.2-0.8-0.3-0.8-1.1c0-0.7,0-1.4,0-2.1c-1,0-1.9,0-2.9,0c0,0.7,0,1.4,0,2.1c0,0.7-0.1,0.8-0.8,1c-0.5,0.2-1.1,0.4-1.6,0.7
		c-0.6,0.3-0.8,0.3-1.3-0.2c-0.5-0.5-1-1-1.5-1.6c-0.7,0.8-1.4,1.5-2,2.1c0.5,0.5,0.9,1,1.5,1.5c0.3,0.3,0.4,0.7,0.2,1.1
		c-0.3,0.5-0.5,1.1-0.7,1.6c-0.3,0.7-0.4,0.8-1.1,0.8c-0.7,0-1.4,0-2.1,0c0,1,0,1.9,0,2.8c0.7,0,1.5,0,2.2,0c0.5,0,0.8,0.2,1,0.7
		c0.2,0.5,0.4,1,0.6,1.5c0.4,0.8,0.4,0.9-0.3,1.5c-0.5,0.5-0.9,0.9-1.3,1.3C26.5,22.9,27.1,23.6,27.8,24.4z"/>
	<path d="M20.7,36.3c0.2,0,0.4,0,0.5,0c1.6,0,3.1,0,4.7,0c0.4,0,0.6-0.1,0.6-0.6c0-0.4,0-0.8,0-1.2c0-0.9,0.2-1.1,1.1-1.1
		c0.9,0,1.8,0,2.7,0c0.2,0,0.3,0,0.5,0c0-0.6,0-1.1,0-1.6c0-0.8,0-1.5,0-2.3c0-0.3,0.1-0.4,0.4-0.4c0.3,0,0.7,0,1.1,0
		c0,1.4,0,2.8,0,4.2c0.3,0,0.5,0,0.7,0c1.2,0.1,2.3-0.3,3.5,0.2c0.5,1.1,0.1,2.3,0.2,3.5c0.1,0.8,0,1.6,0,2.4c0,0.8-0.2,1-1,1
		c-2.7,0-5.4,0-8.1,0c-0.7,0-1-0.2-1-1c0-0.6,0-1.2,0-1.8c-1.9,0-3.8,0-5.8,0c0,0.6,0,1.2,0,1.8c0,0.7-0.3,1-1,1c-2.7,0-5.5,0-8.2,0
		c-0.7,0-1-0.3-1-1c0-1.7,0-3.4,0-5.2c0-0.7,0.3-1,1-1c2.7,0,5.5,0,8.2,0c0.7,0,1,0.3,1,1C20.7,35.1,20.7,35.7,20.7,36.3z
		 M19.2,34.9c-2.4,0-4.8,0-7.1,0c0,1.4,0,2.8,0,4.2c2.4,0,4.8,0,7.1,0C19.2,37.7,19.2,36.3,19.2,34.9z M35.1,34.9
		c-2.3,0-4.6,0-6.9,0c-0.1,0-0.3,0.2-0.3,0.4c0,0.9,0,1.7,0,2.6c0,0.4,0,0.8,0,1.3c2.4,0,4.8,0,7.2,0C35.1,37.7,35.1,36.3,35.1,34.9
		z"/>
	<path d="M20.7,23.6c1,0,1.9,0,2.9,0c0,0.5,0,0.9,0,1.4c-0.9,0-1.9,0-2.9,0c0,0.7,0,1.3,0,1.9c0,0.7-0.3,1-1,1c-2.7,0-5.5,0-8.2,0
		c-0.7,0-1-0.2-1-1c0-1.7,0-3.5,0-5.2c0-0.7,0.2-0.9,0.9-0.9c2.8,0,5.6,0,8.3,0c0.6,0,0.9,0.3,0.9,0.9
		C20.7,22.3,20.7,22.9,20.7,23.6z M12.1,26.4c2.4,0,4.8,0,7.2,0c0-0.7,0-1.4,0-2.1c0-0.7,0-1.4,0-2c-2.4,0-4.8,0-7.2,0
		C12.1,23.6,12.1,25,12.1,26.4z"/>
	<path d="M34.4,22.2c-3.6,0-6.5-2.8-6.5-6.4c0-3.5,2.9-6.4,6.5-6.4c3.6,0,6.5,2.9,6.5,6.4C40.9,19.3,38,22.2,34.4,22.2z M39.4,15.8
		c0-2.7-2.2-5-5-5c-2.8,0-5.1,2.2-5.1,4.9c0,2.7,2.3,4.9,5,4.9C37.1,20.8,39.4,18.5,39.4,15.8z"/>
	<path d="M31.5,15.8c0-1.6,1.3-2.8,2.9-2.8c1.6,0,2.9,1.3,2.9,2.8c0,1.6-1.3,2.9-2.9,2.8C32.8,18.6,31.5,17.3,31.5,15.8z M34.4,14.4
		c-0.8,0-1.4,0.6-1.4,1.4c0,0.8,0.6,1.4,1.4,1.4c0.8,0,1.5-0.7,1.5-1.4C35.8,15,35.2,14.4,34.4,14.4z"/>
</g>
</svg>
